# xmcd
#
# Track frame offsets:
#	150
#	18045
#	49289
#	83229
#	108157
#	138340
#	173929
#	190476
#	205259
#	232001
#	258062
#	282969
#	322114
#
# Disc length: 4775 seconds
#
# Revision: 1
# Processed by: cddbd v1.5.2PL0 Copyright (c) Steve Scherf et al.
# Submitted via: dBpowerAMP V4.0
#
DISCID=b512a50d
DTITLE=Various Artist - Dave Douglas and Friends
DYEAR=2008
DGENRE=Jazz
TTITLE0=Nomad - Summit Music - Various Artist
TTITLE1=Keystone - A Noise From The Deep - Various Artist
TTITLE2=Keystone - Moonshine - Various Artist
TTITLE3=Dave Douglas Quintet - Painter's Way - Various Artist
TTITLE4=Douglas and Mengelberg - Following - Various Artist
TTITLE5=Donny McCaslin - Reccomended Tools - Various Artist
TTITLE6=Michael Bates' Outside Sources - Great Exibition - Various Artist
TTITLE7=Keystone - Awd - Various Artist
TTITLE8=Dave Douglas Quintet - Blues To Steve Lacy - Various Artist
TTITLE9=Indigo Trio - Tankfulness - Various Artist
TTITLE10=Kneebody - Break Me - Various Artist
TTITLE11=Keystone - Silent Stars - Various Artist
TTITLE12=Dave Douglas Quintet - Meaning and Mystery - Various Artist
EXTD=
EXTT0=
EXTT1=
EXTT2=
EXTT3=
EXTT4=
EXTT5=
EXTT6=
EXTT7=
EXTT8=
EXTT9=
EXTT10=
EXTT11=
EXTT12=
PLAYORDER=
